<svg xmlns="http://www.w3.org/2000/svg" width="155.89000000000001" height="35" viewBox="0 0 155.89000000000001 35"><rect class="svg__rect" x="0" y="0" width="98.83" height="35" fill="#AFB4D6"/><rect class="svg__rect" x="96.83" y="0" width="59.06000000000002" height="35" fill="#464B8A"/><path class="svg__text" d="M19.57 22L14.22 22L14.22 13.47L15.70 13.47L15.70 20.82L19.57 20.82L19.57 22ZM24.48 22L22.94 22L26.16 13.47L27.49 13.47L30.72 22L29.17 22L28.47 20.01L25.17 20.01L24.48 22ZM26.82 15.28L25.58 18.82L28.06 18.82L26.82 15.28ZM36.15 22L34.67 22L34.67 13.47L36.15 13.47L39.97 19.54L39.97 13.47L41.44 13.47L41.44 22L39.96 22L36.15 15.95L36.15 22ZM45.93 18.13L45.93 18.13L45.93 17.46Q45.93 15.53 46.86 14.44Q47.79 13.35 49.44 13.35L49.44 13.35Q50.87 13.35 51.71 14.05Q52.54 14.76 52.71 16.08L52.71 16.08L51.26 16.08Q51.01 14.54 49.47 14.54L49.47 14.54Q48.48 14.54 47.96 15.26Q47.44 15.98 47.42 17.37L47.42 17.37L47.42 18.02Q47.42 19.40 48.01 20.17Q48.59 20.93 49.63 20.93L49.63 20.93Q50.76 20.93 51.24 20.42L51.24 20.42L51.24 18.75L49.48 18.75L49.48 17.62L52.72 17.62L52.72 20.89Q52.26 21.50 51.44 21.81Q50.62 22.12 49.57 22.12L49.57 22.12Q48.50 22.12 47.67 21.63Q46.85 21.14 46.40 20.24Q45.95 19.33 45.93 18.13ZM58.12 22L56.57 22L59.80 13.47L61.13 13.47L64.36 22L62.81 22L62.11 20.01L58.81 20.01L58.12 22ZM60.46 15.28L59.22 18.82L61.70 18.82L60.46 15.28ZM68.06 18.13L68.06 18.13L68.06 17.46Q68.06 15.53 68.99 14.44Q69.92 13.35 71.57 13.35L71.57 13.35Q73.00 13.35 73.84 14.05Q74.67 14.76 74.84 16.08L74.84 16.08L73.39 16.08Q73.14 14.54 71.60 14.54L71.60 14.54Q70.61 14.54 70.09 15.26Q69.57 15.98 69.55 17.37L69.55 17.37L69.55 18.02Q69.55 19.40 70.14 20.17Q70.72 20.93 71.76 20.93L71.76 20.93Q72.89 20.93 73.37 20.42L73.37 20.42L73.37 18.75L71.62 18.75L71.62 17.62L74.85 17.62L74.85 20.89Q74.39 21.50 73.57 21.81Q72.75 22.12 71.70 22.12L71.70 22.12Q70.63 22.12 69.81 21.63Q68.98 21.14 68.53 20.24Q68.08 19.33 68.06 18.13ZM85.05 22L79.47 22L79.47 13.47L85.00 13.47L85.00 14.66L80.95 14.66L80.95 17.02L84.45 17.02L84.45 18.19L80.95 18.19L80.95 20.82L85.05 20.82L85.05 22Z" fill="#FFFFFF"/><path class="svg__text" d="M113.40 22L111.02 22L111.02 13.60L114.86 13.60Q116.00 13.60 116.84 13.98Q117.68 14.35 118.14 15.06Q118.59 15.76 118.59 16.71L118.59 16.71Q118.59 17.66 118.14 18.35Q117.68 19.05 116.84 19.42Q116.00 19.80 114.86 19.80L114.86 19.80L113.40 19.80L113.40 22ZM113.40 15.47L113.40 17.93L114.72 17.93Q115.45 17.93 115.82 17.61Q116.19 17.29 116.19 16.71L116.19 16.71Q116.19 16.12 115.82 15.80Q115.45 15.47 114.72 15.47L114.72 15.47L113.40 15.47ZM125.72 22L123.35 22L123.35 13.60L125.72 13.60L125.72 16.76L128.97 16.76L128.97 13.60L131.34 13.60L131.34 22L128.97 22L128.97 18.72L125.72 18.72L125.72 22ZM138.88 22L136.50 22L136.50 13.60L140.34 13.60Q141.48 13.60 142.32 13.98Q143.16 14.35 143.62 15.06Q144.08 15.76 144.08 16.71L144.08 16.71Q144.08 17.66 143.62 18.35Q143.16 19.05 142.32 19.42Q141.48 19.80 140.34 19.80L140.34 19.80L138.88 19.80L138.88 22ZM138.88 15.47L138.88 17.93L140.20 17.93Q140.93 17.93 141.30 17.61Q141.67 17.29 141.67 16.71L141.67 16.71Q141.67 16.12 141.30 15.80Q140.93 15.47 140.20 15.47L140.20 15.47L138.88 15.47Z" fill="#FFFFFF" x="109.83"/></svg>