<svg xmlns="http://www.w3.org/2000/svg" width="216.76000000000002" height="35" viewBox="0 0 216.76000000000002 35"><rect class="svg__rect" x="0" y="0" width="150.08" height="35" fill="#CF649A"/><rect class="svg__rect" x="148.08" y="0" width="68.68" height="35" fill="#9B4B74"/><path class="svg__text" d="M15.70 22L14.22 22L14.22 13.47L17.48 13.47Q18.91 13.47 19.75 14.21Q20.59 14.96 20.59 16.18L20.59 16.18Q20.59 17.44 19.77 18.13Q18.95 18.83 17.46 18.83L17.46 18.83L15.70 18.83L15.70 22ZM15.70 14.66L15.70 17.64L17.48 17.64Q18.27 17.64 18.69 17.27Q19.10 16.90 19.10 16.19L19.10 16.19Q19.10 15.50 18.68 15.09Q18.26 14.68 17.52 14.66L17.52 14.66L15.70 14.66ZM26.36 22L24.88 22L24.88 13.47L27.88 13.47Q29.35 13.47 30.15 14.13Q30.96 14.79 30.96 16.05L30.96 16.05Q30.96 16.90 30.54 17.48Q30.13 18.06 29.39 18.37L29.39 18.37L31.31 21.92L31.31 22L29.72 22L28.01 18.71L26.36 18.71L26.36 22ZM26.36 14.66L26.36 17.52L27.88 17.52Q28.63 17.52 29.05 17.15Q29.48 16.77 29.48 16.11L29.48 16.11Q29.48 15.43 29.09 15.05Q28.70 14.68 27.92 14.66L27.92 14.66L26.36 14.66ZM40.93 22L35.35 22L35.35 13.47L40.89 13.47L40.89 14.66L36.83 14.66L36.83 17.02L40.34 17.02L40.34 18.19L36.83 18.19L36.83 20.82L40.93 20.82L40.93 22ZM46.61 22L45.13 22L45.13 13.47L48.39 13.47Q49.82 13.47 50.66 14.21Q51.50 14.96 51.50 16.18L51.50 16.18Q51.50 17.44 50.68 18.13Q49.85 18.83 48.37 18.83L48.37 18.83L46.61 18.83L46.61 22ZM46.61 14.66L46.61 17.64L48.39 17.64Q49.18 17.64 49.60 17.27Q50.01 16.90 50.01 16.19L50.01 16.19Q50.01 15.50 49.59 15.09Q49.17 14.68 48.43 14.66L48.43 14.66L46.61 14.66ZM57.27 22L55.78 22L55.78 13.47L58.78 13.47Q60.26 13.47 61.06 14.13Q61.87 14.79 61.87 16.05L61.87 16.05Q61.87 16.90 61.45 17.48Q61.04 18.06 60.30 18.37L60.30 18.37L62.22 21.92L62.22 22L60.63 22L58.92 18.71L57.27 18.71L57.27 22ZM57.27 14.66L57.27 17.52L58.79 17.52Q59.54 17.52 59.96 17.15Q60.38 16.77 60.38 16.11L60.38 16.11Q60.38 15.43 59.99 15.05Q59.60 14.68 58.83 14.66L58.83 14.66L57.27 14.66ZM65.99 18.00L65.99 18.00L65.99 17.52Q65.99 16.28 66.43 15.32Q66.88 14.37 67.68 13.86Q68.49 13.35 69.53 13.35Q70.57 13.35 71.38 13.85Q72.18 14.35 72.62 15.29Q73.06 16.23 73.07 17.48L73.07 17.48L73.07 17.96Q73.07 19.21 72.64 20.16Q72.20 21.10 71.40 21.61Q70.59 22.12 69.54 22.12L69.54 22.12Q68.50 22.12 67.69 21.61Q66.88 21.10 66.44 20.17Q66.00 19.23 65.99 18.00ZM67.47 17.46L67.47 17.96Q67.47 19.36 68.02 20.13Q68.57 20.90 69.54 20.90L69.54 20.90Q70.53 20.90 71.06 20.15Q71.59 19.40 71.59 17.96L71.59 17.96L71.59 17.51Q71.59 16.09 71.05 15.34Q70.51 14.58 69.53 14.58L69.53 14.58Q68.57 14.58 68.03 15.33Q67.48 16.09 67.47 17.46L67.47 17.46ZM77.26 18.19L77.26 18.19L77.26 17.39Q77.26 16.19 77.69 15.27Q78.12 14.35 78.92 13.85Q79.72 13.35 80.77 13.35L80.77 13.35Q82.18 13.35 83.04 14.12Q83.90 14.89 84.04 16.29L84.04 16.29L82.57 16.29Q82.46 15.37 82.03 14.96Q81.60 14.55 80.77 14.55L80.77 14.55Q79.80 14.55 79.28 15.26Q78.76 15.96 78.75 17.33L78.75 17.33L78.75 18.09Q78.75 19.47 79.25 20.20Q79.74 20.92 80.70 20.92L80.70 20.92Q81.57 20.92 82.01 20.53Q82.45 20.14 82.57 19.22L82.57 19.22L84.04 19.22Q83.91 20.59 83.04 21.35Q82.16 22.12 80.70 22.12L80.70 22.12Q79.68 22.12 78.90 21.63Q78.13 21.15 77.70 20.26Q77.28 19.37 77.26 18.19ZM93.93 22L88.36 22L88.36 13.47L93.89 13.47L93.89 14.66L89.84 14.66L89.84 17.02L93.34 17.02L93.34 18.19L89.84 18.19L89.84 20.82L93.93 20.82L93.93 22ZM97.70 19.42L97.70 19.42L99.18 19.42Q99.18 20.15 99.66 20.55Q100.14 20.95 101.04 20.95L101.04 20.95Q101.81 20.95 102.20 20.63Q102.59 20.32 102.59 19.80L102.59 19.80Q102.59 19.24 102.19 18.94Q101.80 18.63 100.77 18.32Q99.73 18.01 99.13 17.63L99.13 17.63Q97.96 16.90 97.96 15.72L97.96 15.72Q97.96 14.69 98.80 14.02Q99.64 13.35 100.98 13.35L100.98 13.35Q101.87 13.35 102.57 13.68Q103.27 14.01 103.67 14.61Q104.06 15.22 104.06 15.96L104.06 15.96L102.59 15.96Q102.59 15.29 102.17 14.91Q101.75 14.54 100.97 14.54L100.97 14.54Q100.24 14.54 99.84 14.85Q99.44 15.16 99.44 15.71L99.44 15.71Q99.44 16.18 99.88 16.50Q100.31 16.81 101.31 17.10Q102.30 17.40 102.90 17.78Q103.51 18.16 103.79 18.65Q104.07 19.13 104.07 19.79L104.07 19.79Q104.07 20.86 103.25 21.49Q102.44 22.12 101.04 22.12L101.04 22.12Q100.11 22.12 99.33 21.77Q98.56 21.43 98.13 20.83Q97.70 20.22 97.70 19.42ZM107.93 19.42L107.93 19.42L109.41 19.42Q109.41 20.15 109.89 20.55Q110.37 20.95 111.27 20.95L111.27 20.95Q112.04 20.95 112.43 20.63Q112.82 20.32 112.82 19.80L112.82 19.80Q112.82 19.24 112.42 18.94Q112.03 18.63 111.00 18.32Q109.97 18.01 109.36 17.63L109.36 17.63Q108.19 16.90 108.19 15.72L108.19 15.72Q108.19 14.69 109.03 14.02Q109.87 13.35 111.21 13.35L111.21 13.35Q112.10 13.35 112.80 13.68Q113.50 14.01 113.90 14.61Q114.30 15.22 114.30 15.96L114.30 15.96L112.82 15.96Q112.82 15.29 112.40 14.91Q111.98 14.54 111.20 14.54L111.20 14.54Q110.47 14.54 110.07 14.85Q109.67 15.16 109.67 15.71L109.67 15.71Q109.67 16.18 110.11 16.50Q110.54 16.81 111.54 17.10Q112.53 17.40 113.14 17.78Q113.74 18.16 114.02 18.65Q114.30 19.13 114.30 19.79L114.30 19.79Q114.30 20.86 113.48 21.49Q112.67 22.12 111.27 22.12L111.27 22.12Q110.34 22.12 109.56 21.77Q108.79 21.43 108.36 20.83Q107.93 20.22 107.93 19.42ZM118.32 18.00L118.32 18.00L118.32 17.52Q118.32 16.28 118.76 15.32Q119.21 14.37 120.01 13.86Q120.82 13.35 121.86 13.35Q122.90 13.35 123.71 13.85Q124.51 14.35 124.95 15.29Q125.39 16.23 125.40 17.48L125.40 17.48L125.40 17.96Q125.40 19.21 124.97 20.16Q124.53 21.10 123.73 21.61Q122.92 22.12 121.87 22.12L121.87 22.12Q120.83 22.12 120.02 21.61Q119.21 21.10 118.77 20.17Q118.33 19.23 118.32 18.00ZM119.80 17.46L119.80 17.96Q119.80 19.36 120.35 20.13Q120.90 20.90 121.87 20.90L121.87 20.90Q122.86 20.90 123.39 20.15Q123.92 19.40 123.92 17.96L123.92 17.96L123.92 17.51Q123.92 16.09 123.38 15.34Q122.84 14.58 121.86 14.58L121.86 14.58Q120.90 14.58 120.36 15.33Q119.81 16.09 119.80 17.46L119.80 17.46ZM131.35 22L129.86 22L129.86 13.47L132.86 13.47Q134.34 13.47 135.14 14.13Q135.95 14.79 135.95 16.05L135.95 16.05Q135.95 16.90 135.53 17.48Q135.12 18.06 134.38 18.37L134.38 18.37L136.30 21.92L136.30 22L134.71 22L133.00 18.71L131.35 18.71L131.35 22ZM131.35 14.66L131.35 17.52L132.87 17.52Q133.62 17.52 134.04 17.15Q134.46 16.77 134.46 16.11L134.46 16.11Q134.46 15.43 134.07 15.05Q133.68 14.68 132.91 14.66L132.91 14.66L131.35 14.66Z" fill="#FFFFFF"/><path class="svg__text" d="M161.68 21.24L161.68 21.24L162.46 19.49Q163.02 19.86 163.77 20.09Q164.51 20.32 165.23 20.32L165.23 20.32Q166.60 20.32 166.60 19.64L166.60 19.64Q166.60 19.28 166.21 19.11Q165.82 18.93 164.96 18.74L164.96 18.74Q164.01 18.53 163.37 18.30Q162.74 18.06 162.28 17.55Q161.83 17.03 161.83 16.16L161.83 16.16Q161.83 15.39 162.25 14.77Q162.67 14.15 163.50 13.79Q164.34 13.43 165.54 13.43L165.54 13.43Q166.37 13.43 167.18 13.62Q167.98 13.80 168.60 14.17L168.60 14.17L167.86 15.93Q166.66 15.28 165.53 15.28L165.53 15.28Q164.82 15.28 164.50 15.49Q164.18 15.70 164.18 16.04L164.18 16.04Q164.18 16.37 164.56 16.54Q164.95 16.71 165.80 16.89L165.80 16.89Q166.76 17.10 167.39 17.33Q168.02 17.56 168.48 18.07Q168.94 18.58 168.94 19.46L168.94 19.46Q168.94 20.21 168.52 20.83Q168.10 21.44 167.26 21.80Q166.42 22.17 165.22 22.17L165.22 22.17Q164.20 22.17 163.24 21.92Q162.28 21.67 161.68 21.24ZM174.94 22L172.51 22L176.22 13.60L178.56 13.60L182.28 22L179.81 22L179.15 20.37L175.60 20.37L174.94 22ZM177.37 15.93L176.29 18.61L178.45 18.61L177.37 15.93ZM185.85 21.24L185.85 21.24L186.63 19.49Q187.19 19.86 187.93 20.09Q188.68 20.32 189.40 20.32L189.40 20.32Q190.76 20.32 190.77 19.64L190.77 19.64Q190.77 19.28 190.38 19.11Q189.99 18.93 189.12 18.74L189.12 18.74Q188.17 18.53 187.54 18.30Q186.90 18.06 186.45 17.55Q185.99 17.03 185.99 16.16L185.99 16.16Q185.99 15.39 186.41 14.77Q186.83 14.15 187.67 13.79Q188.50 13.43 189.71 13.43L189.71 13.43Q190.53 13.43 191.34 13.62Q192.14 13.80 192.76 14.17L192.76 14.17L192.03 15.93Q190.83 15.28 189.70 15.28L189.70 15.28Q188.99 15.28 188.66 15.49Q188.34 15.70 188.34 16.04L188.34 16.04Q188.34 16.37 188.73 16.54Q189.11 16.71 189.96 16.89L189.96 16.89Q190.92 17.10 191.55 17.33Q192.18 17.56 192.64 18.07Q193.11 18.58 193.11 19.46L193.11 19.46Q193.11 20.21 192.69 20.83Q192.27 21.44 191.43 21.80Q190.59 22.17 189.39 22.17L189.39 22.17Q188.37 22.17 187.40 21.92Q186.44 21.67 185.85 21.24ZM197.10 21.24L197.10 21.24L197.88 19.49Q198.44 19.86 199.18 20.09Q199.93 20.32 200.65 20.32L200.65 20.32Q202.01 20.32 202.02 19.64L202.02 19.64Q202.02 19.28 201.63 19.11Q201.24 18.93 200.37 18.74L200.37 18.74Q199.42 18.53 198.79 18.30Q198.15 18.06 197.70 17.55Q197.24 17.03 197.24 16.16L197.24 16.16Q197.24 15.39 197.66 14.77Q198.08 14.15 198.92 13.79Q199.75 13.43 200.96 13.43L200.96 13.43Q201.78 13.43 202.59 13.62Q203.39 13.80 204.01 14.17L204.01 14.17L203.28 15.93Q202.08 15.28 200.95 15.28L200.95 15.28Q200.24 15.28 199.91 15.49Q199.59 15.70 199.59 16.04L199.59 16.04Q199.59 16.37 199.98 16.54Q200.36 16.71 201.21 16.89L201.21 16.89Q202.17 17.10 202.80 17.33Q203.43 17.56 203.89 18.07Q204.36 18.58 204.36 19.46L204.36 19.46Q204.36 20.21 203.94 20.83Q203.52 21.44 202.68 21.80Q201.84 22.17 200.64 22.17L200.64 22.17Q199.62 22.17 198.65 21.92Q197.69 21.67 197.10 21.24Z" fill="#FFFFFF" x="161.08"/></svg>