<svg xmlns="http://www.w3.org/2000/svg" width="176.44" height="35" viewBox="0 0 176.44 35"><rect class="svg__rect" x="0" y="0" width="106.87" height="35" fill="#F16529"/><rect class="svg__rect" x="104.87" y="0" width="71.57" height="35" fill="#E44D26"/><path class="svg__text" d="M13.78 19.42L13.78 19.42L15.27 19.42Q15.27 20.15 15.75 20.55Q16.23 20.95 17.12 20.95L17.12 20.95Q17.90 20.95 18.29 20.63Q18.68 20.32 18.68 19.80L18.68 19.80Q18.68 19.24 18.28 18.94Q17.89 18.63 16.85 18.32Q15.82 18.01 15.21 17.63L15.21 17.63Q14.05 16.90 14.05 15.72L14.05 15.72Q14.05 14.69 14.89 14.02Q15.73 13.35 17.07 13.35L17.07 13.35Q17.96 13.35 18.66 13.68Q19.36 14.01 19.75 14.61Q20.15 15.22 20.15 15.96L20.15 15.96L18.68 15.96Q18.68 15.29 18.26 14.91Q17.84 14.54 17.06 14.54L17.06 14.54Q16.33 14.54 15.93 14.85Q15.53 15.16 15.53 15.71L15.53 15.71Q15.53 16.18 15.96 16.50Q16.40 16.81 17.39 17.10Q18.39 17.40 18.99 17.78Q19.60 18.16 19.88 18.65Q20.16 19.13 20.16 19.79L20.16 19.79Q20.16 20.86 19.34 21.49Q18.52 22.12 17.12 22.12L17.12 22.12Q16.20 22.12 15.42 21.77Q14.64 21.43 14.21 20.83Q13.78 20.22 13.78 19.42ZM30.03 22L24.45 22L24.45 13.47L29.98 13.47L29.98 14.66L25.93 14.66L25.93 17.02L29.43 17.02L29.43 18.19L25.93 18.19L25.93 20.82L30.03 20.82L30.03 22ZM35.70 22L34.22 22L34.22 13.47L36.14 13.47L38.60 20.01L41.06 13.47L42.98 13.47L42.98 22L41.50 22L41.50 19.19L41.64 15.43L39.13 22L38.06 22L35.55 15.43L35.70 19.19L35.70 22ZM48.49 22L46.95 22L50.18 13.47L51.51 13.47L54.73 22L53.19 22L52.49 20.01L49.19 20.01L48.49 22ZM50.84 15.28L49.60 18.82L52.07 18.82L50.84 15.28ZM60.17 22L58.69 22L58.69 13.47L60.17 13.47L63.99 19.54L63.99 13.47L65.46 13.47L65.46 22L63.98 22L60.17 15.95L60.17 22ZM71.88 14.66L69.24 14.66L69.24 13.47L76.01 13.47L76.01 14.66L73.35 14.66L73.35 22L71.88 22L71.88 14.66ZM81.33 22L79.85 22L79.85 13.47L81.33 13.47L81.33 22ZM85.87 18.19L85.87 18.19L85.87 17.39Q85.87 16.19 86.30 15.27Q86.73 14.35 87.53 13.85Q88.33 13.35 89.38 13.35L89.38 13.35Q90.79 13.35 91.65 14.12Q92.51 14.89 92.65 16.29L92.65 16.29L91.17 16.29Q91.07 15.37 90.64 14.96Q90.21 14.55 89.38 14.55L89.38 14.55Q88.41 14.55 87.89 15.26Q87.37 15.96 87.36 17.33L87.36 17.33L87.36 18.09Q87.36 19.47 87.85 20.20Q88.35 20.92 89.31 20.92L89.31 20.92Q90.18 20.92 90.62 20.53Q91.06 20.14 91.17 19.22L91.17 19.22L92.65 19.22Q92.52 20.59 91.64 21.35Q90.76 22.12 89.31 22.12L89.31 22.12Q88.29 22.12 87.51 21.63Q86.73 21.15 86.31 20.26Q85.89 19.37 85.87 18.19Z" fill="#FFFFFF"/><path class="svg__text" d="M121.44 22L119.06 22L119.06 13.60L121.44 13.60L121.44 16.76L124.68 16.76L124.68 13.60L127.05 13.60L127.05 22L124.68 22L124.68 18.72L121.44 18.72L121.44 22ZM134.01 15.48L131.42 15.48L131.42 13.60L138.94 13.60L138.94 15.48L136.38 15.48L136.38 22L134.01 22L134.01 15.48ZM145.51 22L143.32 22L143.32 13.60L145.27 13.60L148.23 18.45L151.11 13.60L153.06 13.60L153.08 22L150.90 22L150.88 17.55L148.72 21.17L147.66 21.17L145.51 17.67L145.51 22ZM164.63 22L158.25 22L158.25 13.60L160.62 13.60L160.62 20.11L164.63 20.11L164.63 22Z" fill="#FFFFFF" x="117.87"/></svg>