<svg xmlns="http://www.w3.org/2000/svg" width="121.95" height="35" viewBox="0 0 121.95 35"><rect class="svg__rect" x="0" y="0" width="64.89" height="35" fill="#AFB4D6"/><rect class="svg__rect" x="62.89" y="0" width="59.06" height="35" fill="#464B8A"/><path class="svg__text" d="M14.08 19.16L14.08 19.16L14.08 13.47L15.56 13.47L15.56 19.18Q15.56 20.03 15.99 20.48Q16.43 20.93 17.27 20.93L17.27 20.93Q18.98 20.93 18.98 19.13L18.98 19.13L18.98 13.47L20.46 13.47L20.46 19.17Q20.46 20.53 19.59 21.32Q18.72 22.12 17.27 22.12L17.27 22.12Q15.81 22.12 14.94 21.33Q14.08 20.55 14.08 19.16ZM24.59 19.42L24.59 19.42L26.08 19.42Q26.08 20.15 26.56 20.55Q27.04 20.95 27.93 20.95L27.93 20.95Q28.71 20.95 29.10 20.63Q29.49 20.32 29.49 19.80L29.49 19.80Q29.49 19.24 29.09 18.94Q28.70 18.63 27.66 18.32Q26.63 18.01 26.02 17.63L26.02 17.63Q24.86 16.90 24.86 15.72L24.86 15.72Q24.86 14.69 25.70 14.02Q26.54 13.35 27.88 13.35L27.88 13.35Q28.77 13.35 29.47 13.68Q30.17 14.01 30.56 14.61Q30.96 15.22 30.96 15.96L30.96 15.96L29.49 15.96Q29.49 15.29 29.07 14.91Q28.65 14.54 27.87 14.54L27.87 14.54Q27.14 14.54 26.74 14.85Q26.34 15.16 26.34 15.71L26.34 15.71Q26.34 16.18 26.77 16.50Q27.21 16.81 28.20 17.10Q29.20 17.40 29.80 17.78Q30.41 18.16 30.69 18.65Q30.97 19.13 30.97 19.79L30.97 19.79Q30.97 20.86 30.15 21.49Q29.33 22.12 27.93 22.12L27.93 22.12Q27.01 22.12 26.23 21.77Q25.46 21.43 25.02 20.83Q24.59 20.22 24.59 19.42ZM40.84 22L35.26 22L35.26 13.47L40.80 13.47L40.80 14.66L36.74 14.66L36.74 17.02L40.24 17.02L40.24 18.19L36.74 18.19L36.74 20.82L40.84 20.82L40.84 22ZM44.60 19.42L44.60 19.42L46.08 19.42Q46.08 20.15 46.56 20.55Q47.04 20.95 47.94 20.95L47.94 20.95Q48.71 20.95 49.10 20.63Q49.49 20.32 49.49 19.80L49.49 19.80Q49.49 19.24 49.10 18.94Q48.70 18.63 47.67 18.32Q46.64 18.01 46.03 17.63L46.03 17.63Q44.86 16.90 44.86 15.72L44.86 15.72Q44.86 14.69 45.70 14.02Q46.54 13.35 47.89 13.35L47.89 13.35Q48.78 13.35 49.47 13.68Q50.17 14.01 50.57 14.61Q50.97 15.22 50.97 15.96L50.97 15.96L49.49 15.96Q49.49 15.29 49.07 14.91Q48.65 14.54 47.87 14.54L47.87 14.54Q47.15 14.54 46.75 14.85Q46.34 15.16 46.34 15.71L46.34 15.71Q46.34 16.18 46.78 16.50Q47.21 16.81 48.21 17.10Q49.20 17.40 49.81 17.78Q50.41 18.16 50.69 18.65Q50.97 19.13 50.97 19.79L50.97 19.79Q50.97 20.86 50.16 21.49Q49.34 22.12 47.94 22.12L47.94 22.12Q47.01 22.12 46.24 21.77Q45.46 21.43 45.03 20.83Q44.60 20.22 44.60 19.42Z" fill="#FFFFFF"/><path class="svg__text" d="M79.46 22L77.08 22L77.08 13.60L80.92 13.60Q82.06 13.60 82.90 13.98Q83.74 14.35 84.20 15.06Q84.65 15.76 84.65 16.71L84.65 16.71Q84.65 17.66 84.20 18.35Q83.74 19.05 82.90 19.42Q82.06 19.80 80.92 19.80L80.92 19.80L79.46 19.80L79.46 22ZM79.46 15.47L79.46 17.93L80.78 17.93Q81.51 17.93 81.88 17.61Q82.25 17.29 82.25 16.71L82.25 16.71Q82.25 16.12 81.88 15.80Q81.51 15.47 80.78 15.47L80.78 15.47L79.46 15.47ZM91.78 22L89.41 22L89.41 13.60L91.78 13.60L91.78 16.76L95.03 16.76L95.03 13.60L97.40 13.60L97.40 22L95.03 22L95.03 18.72L91.78 18.72L91.78 22ZM104.94 22L102.56 22L102.56 13.60L106.40 13.60Q107.54 13.60 108.38 13.98Q109.22 14.35 109.68 15.06Q110.14 15.76 110.14 16.71L110.14 16.71Q110.14 17.66 109.68 18.35Q109.22 19.05 108.38 19.42Q107.54 19.80 106.40 19.80L106.40 19.80L104.94 19.80L104.94 22ZM104.94 15.47L104.94 17.93L106.26 17.93Q106.99 17.93 107.36 17.61Q107.73 17.29 107.73 16.71L107.73 16.71Q107.73 16.12 107.36 15.80Q106.99 15.47 106.26 15.47L106.26 15.47L104.94 15.47Z" fill="#FFFFFF" x="75.89"/></svg>