<svg xmlns="http://www.w3.org/2000/svg" width="201.2" height="35" viewBox="0 0 201.2 35"><rect class="svg__rect" x="0" y="0" width="64.89" height="35" fill="#F2BF26"/><rect class="svg__rect" x="62.89" y="0" width="138.31" height="35" fill="#E7A328"/><path class="svg__text" d="M14.08 19.16L14.08 19.16L14.08 13.47L15.56 13.47L15.56 19.18Q15.56 20.03 15.99 20.48Q16.43 20.93 17.27 20.93L17.27 20.93Q18.98 20.93 18.98 19.13L18.98 19.13L18.98 13.47L20.46 13.47L20.46 19.17Q20.46 20.53 19.59 21.32Q18.72 22.12 17.27 22.12L17.27 22.12Q15.81 22.12 14.94 21.33Q14.08 20.55 14.08 19.16ZM24.59 19.42L24.59 19.42L26.08 19.42Q26.08 20.15 26.56 20.55Q27.04 20.95 27.93 20.95L27.93 20.95Q28.71 20.95 29.10 20.63Q29.49 20.32 29.49 19.80L29.49 19.80Q29.49 19.24 29.09 18.94Q28.70 18.63 27.66 18.32Q26.63 18.01 26.02 17.63L26.02 17.63Q24.86 16.90 24.86 15.72L24.86 15.72Q24.86 14.69 25.70 14.02Q26.54 13.35 27.88 13.35L27.88 13.35Q28.77 13.35 29.47 13.68Q30.17 14.01 30.56 14.61Q30.96 15.22 30.96 15.96L30.96 15.96L29.49 15.96Q29.49 15.29 29.07 14.91Q28.65 14.54 27.87 14.54L27.87 14.54Q27.14 14.54 26.74 14.85Q26.34 15.16 26.34 15.71L26.34 15.71Q26.34 16.18 26.77 16.50Q27.21 16.81 28.20 17.10Q29.20 17.40 29.80 17.78Q30.41 18.16 30.69 18.65Q30.97 19.13 30.97 19.79L30.97 19.79Q30.97 20.86 30.15 21.49Q29.33 22.12 27.93 22.12L27.93 22.12Q27.01 22.12 26.23 21.77Q25.46 21.43 25.02 20.83Q24.59 20.22 24.59 19.42ZM40.84 22L35.26 22L35.26 13.47L40.80 13.47L40.80 14.66L36.74 14.66L36.74 17.02L40.24 17.02L40.24 18.19L36.74 18.19L36.74 20.82L40.84 20.82L40.84 22ZM44.60 19.42L44.60 19.42L46.08 19.42Q46.08 20.15 46.56 20.55Q47.04 20.95 47.94 20.95L47.94 20.95Q48.71 20.95 49.10 20.63Q49.49 20.32 49.49 19.80L49.49 19.80Q49.49 19.24 49.10 18.94Q48.70 18.63 47.67 18.32Q46.64 18.01 46.03 17.63L46.03 17.63Q44.86 16.90 44.86 15.72L44.86 15.72Q44.86 14.69 45.70 14.02Q46.54 13.35 47.89 13.35L47.89 13.35Q48.78 13.35 49.47 13.68Q50.17 14.01 50.57 14.61Q50.97 15.22 50.97 15.96L50.97 15.96L49.49 15.96Q49.49 15.29 49.07 14.91Q48.65 14.54 47.87 14.54L47.87 14.54Q47.15 14.54 46.75 14.85Q46.34 15.16 46.34 15.71L46.34 15.71Q46.34 16.18 46.78 16.50Q47.21 16.81 48.21 17.10Q49.20 17.40 49.81 17.78Q50.41 18.16 50.69 18.65Q50.97 19.13 50.97 19.79L50.97 19.79Q50.97 20.86 50.16 21.49Q49.34 22.12 47.94 22.12L47.94 22.12Q47.01 22.12 46.24 21.77Q45.46 21.43 45.03 20.83Q44.60 20.22 44.60 19.42Z" fill="#FFFFFF"/><path class="svg__text" d="M76.00 20.93L76.00 20.93L77.29 19.40Q77.96 20.27 78.74 20.27L78.74 20.27Q78.74 20.27 78.75 20.27L78.75 20.27Q79.26 20.27 79.53 19.96Q79.80 19.65 79.80 19.05L79.80 19.05L79.80 15.44L76.90 15.44L76.90 13.60L82.16 13.60L82.16 18.91Q82.16 20.54 81.33 21.36Q80.51 22.17 78.92 22.17L78.92 22.17Q77.99 22.17 77.24 21.85Q76.48 21.53 76.00 20.93ZM88.66 22L86.24 22L89.95 13.60L92.29 13.60L96.00 22L93.54 22L92.87 20.37L89.32 20.37L88.66 22ZM91.10 15.93L90.02 18.61L92.18 18.61L91.10 15.93ZM102.74 22L99.15 13.60L101.72 13.60L104.00 19.07L106.33 13.60L108.68 13.60L105.08 22L102.74 22ZM114.25 22L111.82 22L115.53 13.60L117.88 13.60L121.59 22L119.12 22L118.46 20.37L114.91 20.37L114.25 22ZM116.69 15.93L115.60 18.61L117.77 18.61L116.69 15.93ZM125.16 21.24L125.16 21.24L125.94 19.49Q126.50 19.86 127.25 20.09Q127.99 20.32 128.71 20.32L128.71 20.32Q130.08 20.32 130.08 19.64L130.08 19.64Q130.08 19.28 129.69 19.11Q129.30 18.93 128.44 18.74L128.44 18.74Q127.49 18.53 126.85 18.30Q126.21 18.06 125.76 17.55Q125.31 17.03 125.31 16.16L125.31 16.16Q125.31 15.39 125.73 14.77Q126.14 14.15 126.98 13.79Q127.81 13.43 129.02 13.43L129.02 13.43Q129.85 13.43 130.65 13.62Q131.46 13.80 132.07 14.17L132.07 14.17L131.34 15.93Q130.14 15.28 129.01 15.28L129.01 15.28Q128.30 15.28 127.98 15.49Q127.66 15.70 127.66 16.04L127.66 16.04Q127.66 16.37 128.04 16.54Q128.42 16.71 129.27 16.89L129.27 16.89Q130.23 17.10 130.86 17.33Q131.49 17.56 131.96 18.07Q132.42 18.58 132.42 19.46L132.42 19.46Q132.42 20.21 132.00 20.83Q131.58 21.44 130.74 21.80Q129.90 22.17 128.70 22.17L128.70 22.17Q127.68 22.17 126.72 21.92Q125.76 21.67 125.16 21.24ZM136.57 17.80L136.57 17.80Q136.57 16.54 137.17 15.54Q137.76 14.55 138.82 13.99Q139.87 13.43 141.19 13.43L141.19 13.43Q142.34 13.43 143.26 13.84Q144.19 14.25 144.80 15.02L144.80 15.02L143.29 16.39Q142.47 15.40 141.31 15.40L141.31 15.40Q140.62 15.40 140.09 15.70Q139.56 16 139.26 16.54Q138.96 17.09 138.96 17.80L138.96 17.80Q138.96 18.51 139.26 19.05Q139.56 19.60 140.09 19.90Q140.62 20.20 141.31 20.20L141.31 20.20Q142.47 20.20 143.29 19.22L143.29 19.22L144.80 20.58Q144.19 21.35 143.27 21.76Q142.34 22.17 141.19 22.17L141.19 22.17Q139.87 22.17 138.82 21.61Q137.76 21.05 137.17 20.05Q136.57 19.06 136.57 17.80ZM151.71 22L149.34 22L149.34 13.60L153.18 13.60Q154.32 13.60 155.16 13.98Q156.00 14.35 156.45 15.06Q156.91 15.76 156.91 16.71L156.91 16.71Q156.91 17.62 156.48 18.30Q156.06 18.98 155.27 19.36L155.27 19.36L157.08 22L154.53 22L153.01 19.77L151.71 19.77L151.71 22ZM151.71 15.47L151.71 17.93L153.03 17.93Q153.77 17.93 154.14 17.61Q154.51 17.29 154.51 16.71L154.51 16.71Q154.51 16.12 154.14 15.79Q153.77 15.47 153.03 15.47L153.03 15.47L151.71 15.47ZM164.08 22L161.70 22L161.70 13.60L164.08 13.60L164.08 22ZM171.63 22L169.25 22L169.25 13.60L173.10 13.60Q174.23 13.60 175.07 13.98Q175.91 14.35 176.37 15.06Q176.83 15.76 176.83 16.71L176.83 16.71Q176.83 17.66 176.37 18.35Q175.91 19.05 175.07 19.42Q174.23 19.80 173.10 19.80L173.10 19.80L171.63 19.80L171.63 22ZM171.63 15.47L171.63 17.93L172.95 17.93Q173.68 17.93 174.05 17.61Q174.43 17.29 174.43 16.71L174.43 16.71Q174.43 16.12 174.05 15.80Q173.68 15.47 172.95 15.47L172.95 15.47L171.63 15.47ZM183.37 15.48L180.79 15.48L180.79 13.60L188.31 13.60L188.31 15.48L185.75 15.48L185.75 22L183.37 22L183.37 15.48Z" fill="#FFFFFF" x="75.89"/></svg>