<svg xmlns="http://www.w3.org/2000/svg" width="119.58" height="35" viewBox="0 0 119.58 35"><rect class="svg__rect" x="0" y="0" width="64.89" height="35" fill="#28A9DF"/><rect class="svg__rect" x="62.89" y="0" width="56.69" height="35" fill="#0070BB"/><path class="svg__text" d="M14.08 19.16L14.08 19.16L14.08 13.47L15.56 13.47L15.56 19.18Q15.56 20.03 15.99 20.48Q16.43 20.93 17.27 20.93L17.27 20.93Q18.98 20.93 18.98 19.13L18.98 19.13L18.98 13.47L20.46 13.47L20.46 19.17Q20.46 20.53 19.59 21.32Q18.72 22.12 17.27 22.12L17.27 22.12Q15.81 22.12 14.94 21.33Q14.08 20.55 14.08 19.16ZM24.59 19.42L24.59 19.42L26.08 19.42Q26.08 20.15 26.56 20.55Q27.04 20.95 27.93 20.95L27.93 20.95Q28.71 20.95 29.10 20.63Q29.49 20.32 29.49 19.80L29.49 19.80Q29.49 19.24 29.09 18.94Q28.70 18.63 27.66 18.32Q26.63 18.01 26.02 17.63L26.02 17.63Q24.86 16.90 24.86 15.72L24.86 15.72Q24.86 14.69 25.70 14.02Q26.54 13.35 27.88 13.35L27.88 13.35Q28.77 13.35 29.47 13.68Q30.17 14.01 30.56 14.61Q30.96 15.22 30.96 15.96L30.96 15.96L29.49 15.96Q29.49 15.29 29.07 14.91Q28.65 14.54 27.87 14.54L27.87 14.54Q27.14 14.54 26.74 14.85Q26.34 15.16 26.34 15.71L26.34 15.71Q26.34 16.18 26.77 16.50Q27.21 16.81 28.20 17.10Q29.20 17.40 29.80 17.78Q30.41 18.16 30.69 18.65Q30.97 19.13 30.97 19.79L30.97 19.79Q30.97 20.86 30.15 21.49Q29.33 22.12 27.93 22.12L27.93 22.12Q27.01 22.12 26.23 21.77Q25.46 21.43 25.02 20.83Q24.59 20.22 24.59 19.42ZM40.84 22L35.26 22L35.26 13.47L40.80 13.47L40.80 14.66L36.74 14.66L36.74 17.02L40.24 17.02L40.24 18.19L36.74 18.19L36.74 20.82L40.84 20.82L40.84 22ZM44.60 19.42L44.60 19.42L46.08 19.42Q46.08 20.15 46.56 20.55Q47.04 20.95 47.94 20.95L47.94 20.95Q48.71 20.95 49.10 20.63Q49.49 20.32 49.49 19.80L49.49 19.80Q49.49 19.24 49.10 18.94Q48.70 18.63 47.67 18.32Q46.64 18.01 46.03 17.63L46.03 17.63Q44.86 16.90 44.86 15.72L44.86 15.72Q44.86 14.69 45.70 14.02Q46.54 13.35 47.89 13.35L47.89 13.35Q48.78 13.35 49.47 13.68Q50.17 14.01 50.57 14.61Q50.97 15.22 50.97 15.96L50.97 15.96L49.49 15.96Q49.49 15.29 49.07 14.91Q48.65 14.54 47.87 14.54L47.87 14.54Q47.15 14.54 46.75 14.85Q46.34 15.16 46.34 15.71L46.34 15.71Q46.34 16.18 46.78 16.50Q47.21 16.81 48.21 17.10Q49.20 17.40 49.81 17.78Q50.41 18.16 50.69 18.65Q50.97 19.13 50.97 19.79L50.97 19.79Q50.97 20.86 50.16 21.49Q49.34 22.12 47.94 22.12L47.94 22.12Q47.01 22.12 46.24 21.77Q45.46 21.43 45.03 20.83Q44.60 20.22 44.60 19.42Z" fill="#FFFFFF"/><path class="svg__text" d="M76.65 17.80L76.65 17.80Q76.65 16.54 77.25 15.54Q77.85 14.55 78.90 13.99Q79.95 13.43 81.27 13.43L81.27 13.43Q82.42 13.43 83.34 13.84Q84.27 14.25 84.88 15.02L84.88 15.02L83.37 16.39Q82.56 15.40 81.39 15.40L81.39 15.40Q80.70 15.40 80.17 15.70Q79.64 16 79.34 16.54Q79.05 17.09 79.05 17.80L79.05 17.80Q79.05 18.51 79.34 19.05Q79.64 19.60 80.17 19.90Q80.70 20.20 81.39 20.20L81.39 20.20Q82.56 20.20 83.37 19.22L83.37 19.22L84.88 20.58Q84.27 21.35 83.35 21.76Q82.42 22.17 81.27 22.17L81.27 22.17Q79.95 22.17 78.90 21.61Q77.85 21.05 77.25 20.05Q76.65 19.06 76.65 17.80ZM88.83 21.24L88.83 21.24L89.61 19.49Q90.17 19.86 90.92 20.09Q91.66 20.32 92.38 20.32L92.38 20.32Q93.75 20.32 93.75 19.64L93.75 19.64Q93.75 19.28 93.36 19.11Q92.97 18.93 92.11 18.74L92.11 18.74Q91.16 18.53 90.52 18.30Q89.89 18.06 89.43 17.55Q88.98 17.03 88.98 16.16L88.98 16.16Q88.98 15.39 89.40 14.77Q89.82 14.15 90.65 13.79Q91.49 13.43 92.69 13.43L92.69 13.43Q93.52 13.43 94.32 13.62Q95.13 13.80 95.75 14.17L95.75 14.17L95.01 15.93Q93.81 15.28 92.68 15.28L92.68 15.28Q91.97 15.28 91.65 15.49Q91.33 15.70 91.33 16.04L91.33 16.04Q91.33 16.37 91.71 16.54Q92.10 16.71 92.95 16.89L92.95 16.89Q93.91 17.10 94.54 17.33Q95.17 17.56 95.63 18.07Q96.09 18.58 96.09 19.46L96.09 19.46Q96.09 20.21 95.67 20.83Q95.25 21.44 94.41 21.80Q93.57 22.17 92.37 22.17L92.37 22.17Q91.35 22.17 90.39 21.92Q89.43 21.67 88.83 21.24ZM100.08 21.24L100.08 21.24L100.86 19.49Q101.42 19.86 102.17 20.09Q102.91 20.32 103.63 20.32L103.63 20.32Q105.00 20.32 105.00 19.64L105.00 19.64Q105.00 19.28 104.61 19.11Q104.22 18.93 103.36 18.74L103.36 18.74Q102.41 18.53 101.77 18.30Q101.14 18.06 100.68 17.55Q100.23 17.03 100.23 16.16L100.23 16.16Q100.23 15.39 100.65 14.77Q101.07 14.15 101.90 13.79Q102.74 13.43 103.94 13.43L103.94 13.43Q104.77 13.43 105.57 13.62Q106.38 13.80 107.00 14.17L107.00 14.17L106.26 15.93Q105.06 15.28 103.93 15.28L103.93 15.28Q103.22 15.28 102.90 15.49Q102.58 15.70 102.58 16.04L102.58 16.04Q102.58 16.37 102.96 16.54Q103.35 16.71 104.20 16.89L104.20 16.89Q105.16 17.10 105.79 17.33Q106.42 17.56 106.88 18.07Q107.34 18.58 107.34 19.46L107.34 19.46Q107.34 20.21 106.92 20.83Q106.50 21.44 105.66 21.80Q104.82 22.17 103.62 22.17L103.62 22.17Q102.60 22.17 101.64 21.92Q100.68 21.67 100.08 21.24Z" fill="#FFFFFF" x="75.89"/></svg>